<svg width="100%" height="100%" id="svg" viewBox="0 0 1440 700" xmlns="http://www.w3.org/2000/svg" class="transition duration-300 ease-in-out delay-150"><defs><linearGradient id="gradient" x1="0%" y1="50%" x2="100%" y2="50%"><stop offset="5%" stop-color="#5c7aea"></stop><stop offset="95%" stop-color="#2146c7"></stop></linearGradient></defs><path d="M 0,700 C 0,700 0,175 0,175 C 65.80861244019138,188.61722488038276 131.61722488038276,202.23444976076553 246,205 C 360.38277511961724,207.76555023923447 523.3397129186603,199.67942583732062 615,203 C 706.6602870813397,206.32057416267938 727.0239234449759,221.04784688995213 815,227 C 902.9760765550241,232.95215311004787 1058.5645933014355,230.12918660287085 1174,220 C 1289.4354066985645,209.87081339712915 1364.7177033492821,192.43540669856458 1440,175 C 1440,175 1440,700 1440,700 Z" stroke="none" stroke-width="0" fill="url(#gradient)" fill-opacity="0.4" class="transition-all duration-300 ease-in-out delay-150 path-0" transform="rotate(-180 720 350)"></path><defs><linearGradient id="gradient" x1="0%" y1="50%" x2="100%" y2="50%"><stop offset="5%" stop-color="#5c7aea"></stop><stop offset="95%" stop-color="#2146c7"></stop></linearGradient></defs><path d="M 0,700 C 0,700 0,350 0,350 C 98.21052631578945,341.9043062200957 196.4210526315789,333.80861244019144 281,344 C 365.5789473684211,354.19138755980856 436.52631578947364,382.6698564593301 526,367 C 615.4736842105264,351.3301435406699 723.4736842105265,291.5119617224881 823,292 C 922.5263157894735,292.4880382775119 1013.578947368421,353.2822966507177 1115,373 C 1216.421052631579,392.7177033492823 1328.2105263157896,371.3588516746412 1440,350 C 1440,350 1440,700 1440,700 Z" stroke="none" stroke-width="0" fill="url(#gradient)" fill-opacity="0.53" class="transition-all duration-300 ease-in-out delay-150 path-1" transform="rotate(-180 720 350)"></path><defs><linearGradient id="gradient" x1="0%" y1="50%" x2="100%" y2="50%"><stop offset="5%" stop-color="#5c7aea"></stop><stop offset="95%" stop-color="#2146c7"></stop></linearGradient></defs><path d="M 0,700 C 0,700 0,525 0,525 C 95.65550239234452,489.622009569378 191.31100478468903,454.244019138756 295,461 C 398.68899521531097,467.755980861244 510.4114832535885,516.645933014354 603,546 C 695.5885167464115,575.354066985646 769.0430622009569,585.1722488038278 858,575 C 946.9569377990431,564.8277511961722 1051.4162679425838,534.665071770335 1151,523 C 1250.5837320574162,511.334928229665 1345.2918660287082,518.1674641148325 1440,525 C 1440,525 1440,700 1440,700 Z" stroke="none" stroke-width="0" fill="url(#gradient)" fill-opacity="1" class="transition-all duration-300 ease-in-out delay-150 path-2" transform="rotate(-180 720 350)"></path></svg>
