<svg id="wave" style="transform:rotate(180deg); transition: 0.3s" viewBox="0 0 1440 250" version="1.1" xmlns="http://www.w3.org/2000/svg"><defs><linearGradient id="sw-gradient-0" x1="0" x2="0" y1="1" y2="0"><stop stop-color="rgba(33, 70, 199, 1)" offset="0%"></stop><stop stop-color="rgba(92, 122, 234, 1)" offset="100%"></stop></linearGradient></defs><path style="transform:translate(0, 0px); opacity:1" fill="url(#sw-gradient-0)" d="M0,100L60,120.8C120,142,240,183,360,166.7C480,150,600,75,720,45.8C840,17,960,33,1080,41.7C1200,50,1320,50,1440,54.2C1560,58,1680,67,1800,83.3C1920,100,2040,125,2160,129.2C2280,133,2400,117,2520,108.3C2640,100,2760,100,2880,120.8C3000,142,3120,183,3240,179.2C3360,175,3480,125,3600,116.7C3720,108,3840,142,3960,158.3C4080,175,4200,175,4320,175C4440,175,4560,175,4680,158.3C4800,142,4920,108,5040,87.5C5160,67,5280,58,5400,45.8C5520,33,5640,17,5760,25C5880,33,6000,67,6120,66.7C6240,67,6360,33,6480,33.3C6600,33,6720,67,6840,70.8C6960,75,7080,50,7200,33.3C7320,17,7440,8,7560,20.8C7680,33,7800,67,7920,104.2C8040,142,8160,183,8280,195.8C8400,208,8520,192,8580,183.3L8640,175L8640,250L8580,250C8520,250,8400,250,8280,250C8160,250,8040,250,7920,250C7800,250,7680,250,7560,250C7440,250,7320,250,7200,250C7080,250,6960,250,6840,250C6720,250,6600,250,6480,250C6360,250,6240,250,6120,250C6000,250,5880,250,5760,250C5640,250,5520,250,5400,250C5280,250,5160,250,5040,250C4920,250,4800,250,4680,250C4560,250,4440,250,4320,250C4200,250,4080,250,3960,250C3840,250,3720,250,3600,250C3480,250,3360,250,3240,250C3120,250,3000,250,2880,250C2760,250,2640,250,2520,250C2400,250,2280,250,2160,250C2040,250,1920,250,1800,250C1680,250,1560,250,1440,250C1320,250,1200,250,1080,250C960,250,840,250,720,250C600,250,480,250,360,250C240,250,120,250,60,250L0,250Z"></path><defs><linearGradient id="sw-gradient-1" x1="0" x2="0" y1="1" y2="0"><stop stop-color="rgba(33, 70, 199, 1)" offset="0%"></stop><stop stop-color="rgba(92, 122, 234, 1)" offset="100%"></stop></linearGradient></defs><path style="transform:translate(0, 50px); opacity:0.9" fill="url(#sw-gradient-1)" d="M0,0L60,25C120,50,240,100,360,137.5C480,175,600,200,720,183.3C840,167,960,108,1080,95.8C1200,83,1320,117,1440,116.7C1560,117,1680,83,1800,79.2C1920,75,2040,100,2160,104.2C2280,108,2400,92,2520,79.2C2640,67,2760,58,2880,70.8C3000,83,3120,117,3240,133.3C3360,150,3480,150,3600,137.5C3720,125,3840,100,3960,75C4080,50,4200,25,4320,25C4440,25,4560,50,4680,70.8C4800,92,4920,108,5040,95.8C5160,83,5280,42,5400,20.8C5520,0,5640,0,5760,37.5C5880,75,6000,150,6120,187.5C6240,225,6360,225,6480,216.7C6600,208,6720,192,6840,183.3C6960,175,7080,175,7200,154.2C7320,133,7440,92,7560,70.8C7680,50,7800,50,7920,62.5C8040,75,8160,100,8280,116.7C8400,133,8520,142,8580,145.8L8640,150L8640,250L8580,250C8520,250,8400,250,8280,250C8160,250,8040,250,7920,250C7800,250,7680,250,7560,250C7440,250,7320,250,7200,250C7080,250,6960,250,6840,250C6720,250,6600,250,6480,250C6360,250,6240,250,6120,250C6000,250,5880,250,5760,250C5640,250,5520,250,5400,250C5280,250,5160,250,5040,250C4920,250,4800,250,4680,250C4560,250,4440,250,4320,250C4200,250,4080,250,3960,250C3840,250,3720,250,3600,250C3480,250,3360,250,3240,250C3120,250,3000,250,2880,250C2760,250,2640,250,2520,250C2400,250,2280,250,2160,250C2040,250,1920,250,1800,250C1680,250,1560,250,1440,250C1320,250,1200,250,1080,250C960,250,840,250,720,250C600,250,480,250,360,250C240,250,120,250,60,250L0,250Z"></path></svg>
