<?xml version="1.0" standalone="no"?>
<svg xmlns:xlink="http://www.w3.org/1999/xlink" id="wave" style="transform:rotate(0deg); transition: 0.3s" viewBox="0 0 1440 230" version="1.1" xmlns="http://www.w3.org/2000/svg"><defs><linearGradient id="sw-gradient-0" x1="0" x2="0" y1="1" y2="0"><stop stop-color="rgba(245, 252, 255, 1)" offset="0%"/><stop stop-color="rgba(248, 253, 255, 1)" offset="100%"/></linearGradient></defs><path style="transform:translate(0, 0px); opacity:1" fill="url(#sw-gradient-0)" d="M0,69L30,65.2C60,61,120,54,180,46C240,38,300,31,360,53.7C420,77,480,130,540,153.3C600,176,660,169,720,157.2C780,146,840,130,900,126.5C960,123,1020,130,1080,122.7C1140,115,1200,92,1260,80.5C1320,69,1380,69,1440,88.2C1500,107,1560,146,1620,134.2C1680,123,1740,61,1800,53.7C1860,46,1920,92,1980,126.5C2040,161,2100,184,2160,191.7C2220,199,2280,192,2340,184C2400,176,2460,169,2520,141.8C2580,115,2640,69,2700,49.8C2760,31,2820,38,2880,57.5C2940,77,3000,107,3060,134.2C3120,161,3180,184,3240,161C3300,138,3360,69,3420,61.3C3480,54,3540,107,3600,130.3C3660,153,3720,146,3780,149.5C3840,153,3900,169,3960,172.5C4020,176,4080,169,4140,157.2C4200,146,4260,130,4290,122.7L4320,115L4320,230L4290,230C4260,230,4200,230,4140,230C4080,230,4020,230,3960,230C3900,230,3840,230,3780,230C3720,230,3660,230,3600,230C3540,230,3480,230,3420,230C3360,230,3300,230,3240,230C3180,230,3120,230,3060,230C3000,230,2940,230,2880,230C2820,230,2760,230,2700,230C2640,230,2580,230,2520,230C2460,230,2400,230,2340,230C2280,230,2220,230,2160,230C2100,230,2040,230,1980,230C1920,230,1860,230,1800,230C1740,230,1680,230,1620,230C1560,230,1500,230,1440,230C1380,230,1320,230,1260,230C1200,230,1140,230,1080,230C1020,230,960,230,900,230C840,230,780,230,720,230C660,230,600,230,540,230C480,230,420,230,360,230C300,230,240,230,180,230C120,230,60,230,30,230L0,230Z"/></svg>